<svg width="168" height="168" viewBox="0 0 168 168" fill="none" xmlns="http://www.w3.org/2000/svg">
<circle cx="84" cy="84" r="84" fill="#434343"/>
<path d="M68 144C51.4315 144 38 130.569 38 114L38 24L99 24C115.569 24 129 37.4315 129 54L129 144L68 144Z" fill="#D9D9D9"/>
<mask id="mask0_207_134" style="mask-type:alpha" maskUnits="userSpaceOnUse" x="38" y="24" width="91" height="120">
<path d="M68 144C51.4315 144 38 130.569 38 114L38 24L99 24C115.569 24 129 37.4315 129 54L129 144L68 144Z" fill="#D9D9D9"/>
</mask>
<g mask="url(#mask0_207_134)">
<line x1="61" y1="24" x2="61" y2="147" stroke="#AC7600" stroke-width="8" stroke-dasharray="16 16"/>
<line x1="69" y1="9" x2="69" y2="162" stroke="#AC7600" stroke-width="8" stroke-dasharray="16 16"/>
</g>
</svg>
