<svg width="168" height="168" viewBox="0 0 168 168" fill="none" xmlns="http://www.w3.org/2000/svg">
<circle cx="84" cy="84" r="84" fill="#434343"/>
<path d="M33 53C33 36.4315 46.4315 23 63 23H135V115C135 131.569 121.569 145 105 145H63C46.4315 145 33 131.569 33 115V53Z" fill="#D9D9D9"/>
<path d="M115.514 58.6014L96.0163 22.9004L135.012 22.9004L115.514 58.6014Z" fill="#5A5A5A"/>
<path d="M119 59L102.546 23L135.454 23L119 59Z" fill="#5A5A5A" fill-opacity="0.5"/>
<path d="M104.653 122.616H84.4926C78.4126 122.616 72.9726 121.656 68.1726 119.736C63.4366 117.816 59.4046 115.096 56.0766 111.576C52.8126 108.12 50.3166 103.992 48.5886 99.192C46.8606 94.328 45.9966 88.952 45.9966 83.064C45.9966 77.24 46.8926 71.864 48.6846 66.936C50.4766 62.008 53.0366 57.784 56.3646 54.264C59.6926 50.68 63.7246 47.896 68.4606 45.912C73.1966 43.928 78.5406 42.936 84.4926 42.936C89.9966 42.936 95.0206 43.8 99.5646 45.528C104.109 47.192 107.981 49.592 111.181 52.728C114.445 55.8 116.941 59.576 118.669 64.056C120.461 68.472 121.357 73.4 121.357 78.84C121.357 86.52 119.725 92.504 116.461 96.792C113.261 101.016 108.909 103.128 103.405 103.128C99.9486 103.128 97.1326 102.296 94.9566 100.632C92.7806 98.968 91.5966 96.792 91.4046 94.104H90.9246C90.2846 96.792 89.0686 98.936 87.2766 100.536C85.5486 102.136 83.0846 102.936 79.8846 102.936C75.6606 102.936 72.1406 101.272 69.3246 97.944C66.5086 94.552 65.1006 89.592 65.1006 83.064C65.1006 76.536 66.5086 71.608 69.3246 68.28C72.1406 64.888 75.6606 63.192 79.8846 63.192C82.5726 63.192 84.7486 63.928 86.4126 65.4C88.0766 66.808 89.1966 68.568 89.7726 70.68H90.2526V64.056H100.909V89.88C100.909 93.08 102.317 94.68 105.133 94.68C107.309 94.68 109.069 93.528 110.413 91.224C111.757 88.856 112.429 85.208 112.429 80.28V77.592C112.429 73.496 111.725 69.816 110.317 66.552C108.973 63.288 107.053 60.536 104.557 58.296C102.125 56.056 99.1806 54.328 95.7246 53.112C92.3326 51.896 88.5886 51.288 84.4926 51.288C79.9486 51.288 75.8526 52.024 72.2046 53.496C68.6206 54.968 65.5166 57.048 62.8926 59.736C60.3326 62.36 58.3486 65.528 56.9406 69.24C55.5966 72.888 54.9246 76.888 54.9246 81.24V84.888C54.9246 89.24 55.5966 93.24 56.9406 96.888C58.3486 100.472 60.3326 103.544 62.8926 106.104C65.5166 108.664 68.6206 110.648 72.2046 112.056C75.8526 113.464 79.9486 114.168 84.4926 114.168H104.653V122.616ZM83.8206 94.2C85.4846 94.2 86.9566 93.592 88.2366 92.376C89.5806 91.096 90.2526 89.72 90.2526 88.248V77.112C90.2526 75.64 89.5806 74.424 88.2366 73.464C86.9566 72.44 85.4846 71.928 83.8206 71.928C81.5166 71.928 79.6606 72.664 78.2526 74.136C76.9086 75.608 76.2366 77.496 76.2366 79.8V86.328C76.2366 88.632 76.9086 90.52 78.2526 91.992C79.6606 93.464 81.5166 94.2 83.8206 94.2Z" fill="black"/>
</svg>
