<svg width="168" height="168" viewBox="0 0 168 168" fill="none" xmlns="http://www.w3.org/2000/svg">
<circle cx="84" cy="84" r="84" fill="#434343"/>
<path d="M36 63C36 46.4315 49.4315 33 66 33L132 33V105C132 121.569 118.569 135 102 135H36L36 63Z" fill="#D9D9D9"/>
<mask id="mask0_207_136" style="mask-type:alpha" maskUnits="userSpaceOnUse" x="35" y="26" width="98" height="117">
<path d="M35.5 56.5C35.5 39.9315 48.9315 26.5 65.5 26.5L132.5 26.5V112.5C132.5 129.069 119.069 142.5 102.5 142.5H35.5L35.5 56.5Z" fill="#D9D9D9"/>
</mask>
<g mask="url(#mask0_207_136)">
<rect x="80" y="50" width="7" height="69" rx="3.5" fill="#7029BB"/>
<rect x="67" y="59" width="7" height="51" rx="3.5" fill="#7029BB"/>
<rect x="106" y="59" width="7" height="51" rx="3.5" fill="#7029BB"/>
<rect x="54" y="70" width="7" height="28" rx="3.5" fill="#7029BB"/>
<rect x="93" y="70" width="7" height="28" rx="3.5" fill="#7029BB"/>
</g>
</svg>
