<svg width="168" height="168" viewBox="0 0 168 168" fill="none" xmlns="http://www.w3.org/2000/svg">
<circle cx="84" cy="84" r="84" fill="#434343"/>
<path d="M33 53C33 36.4315 46.4315 23 63 23H135V115C135 131.569 121.569 145 105 145H33V53Z" fill="#D9D9D9"/>
<path d="M115.514 58.6014L96.0163 22.9004L135.012 22.9004L115.514 58.6014Z" fill="#5A5A5A"/>
<path d="M119 59L102.546 23L135.454 23L119 59Z" fill="#5A5A5A" fill-opacity="0.5"/>
<rect x="41" y="65" width="86" height="7" rx="3.5" fill="#434343"/>
<rect x="41" y="79" width="86" height="7" rx="3.5" fill="#434343"/>
<rect x="41" y="93" width="86" height="7" rx="3.5" fill="#434343"/>
<rect x="41" y="44" width="44" height="13" rx="5" fill="#2957BB"/>
<rect x="83" y="110" width="44" height="13" rx="5" fill="#2957BB"/>
</svg>
