<svg width="168" height="168" viewBox="0 0 168 168" fill="none" xmlns="http://www.w3.org/2000/svg">
<circle cx="84" cy="84" r="84" fill="#434343"/>
<path d="M56 133C39.4315 133 26 119.569 26 103L26 36L112 36C128.569 36 142 49.4315 142 66L142 133L56 133Z" fill="#D9D9D9"/>
<mask id="mask0_207_135" style="mask-type:alpha" maskUnits="userSpaceOnUse" x="26" y="36" width="116" height="97">
<path d="M56 133C39.4315 133 26 119.569 26 103L26 36L112 36C128.569 36 142 49.4315 142 66L142 133L56 133Z" fill="#D9D9D9"/>
</mask>
<g mask="url(#mask0_207_135)">
<path d="M105.109 57.06C107.004 53.5826 111.996 53.5826 113.891 57.06L156.136 134.608C157.951 137.94 155.539 142 151.745 142H67.2551C63.461 142 61.0493 137.94 62.8643 134.608L105.109 57.06Z" fill="#5A5A5A"/>
<circle cx="60.5" cy="65.5" r="14.5" fill="#D08000"/>
</g>
</svg>
