<svg width="168" height="168" viewBox="0 0 168 168" fill="none" xmlns="http://www.w3.org/2000/svg">
<circle cx="84" cy="84" r="84" fill="#434343"/>
<path d="M38 144L38 54C38 37.4315 51.4315 24 68 24L129 24L129 114C129 130.569 115.569 144 99 144L38 144Z" fill="#D9D9D9"/>
<mask id="mask0_207_137" style="mask-type:alpha" maskUnits="userSpaceOnUse" x="38" y="24" width="91" height="120">
<path d="M68 144C51.4315 144 38 130.569 38 114L38 54C38 37.4315 51.4315 24 68 24L129 24L129 144L68 144Z" fill="#D9D9D9"/>
</mask>
<g mask="url(#mask0_207_137)">
<path d="M86.9134 98.976H76.9294V83.712C82.1134 83.456 86.0814 82.368 88.8334 80.448C91.6494 78.464 93.0574 75.552 93.0574 71.712V70.368C93.0574 67.488 92.1294 65.216 90.2734 63.552C88.4814 61.888 86.1454 61.056 83.2654 61.056C80.0654 61.056 77.4734 62.016 75.4894 63.936C73.5054 65.792 72.1934 68.128 71.5534 70.944L62.4334 67.296C63.2654 64.608 64.5134 62.112 66.1774 59.808C67.9054 57.44 70.2094 55.52 73.0894 54.048C75.9694 52.576 79.4574 51.84 83.5534 51.84C87.7774 51.84 91.4254 52.64 94.4974 54.24C97.5694 55.776 99.9374 57.952 101.601 60.768C103.329 63.584 104.193 66.88 104.193 70.656C104.193 74.56 103.361 77.856 101.697 80.544C100.033 83.232 97.8574 85.376 95.1694 86.976C92.5454 88.512 89.7934 89.568 86.9134 90.144V98.976ZM82.0174 121.152C79.5854 121.152 77.7934 120.576 76.6414 119.424C75.5534 118.208 75.0094 116.672 75.0094 114.816V113.184C75.0094 111.328 75.5534 109.824 76.6414 108.672C77.7934 107.456 79.5854 106.848 82.0174 106.848C84.5134 106.848 86.3054 107.456 87.3934 108.672C88.4814 109.824 89.0254 111.328 89.0254 113.184V114.816C89.0254 116.672 88.4814 118.208 87.3934 119.424C86.3054 120.576 84.5134 121.152 82.0174 121.152Z" fill="#2C2C2C"/>
<g filter="url(#filter0_d_207_137)">
<path d="M109.514 59.6014L90.0163 23.9004L129.012 23.9004L109.514 59.6014Z" fill="#5A5A5A"/>
</g>
</g>
<defs>
<filter id="filter0_d_207_137" x="90.0161" y="23.9004" width="41.9961" height="35.701" filterUnits="userSpaceOnUse" color-interpolation-filters="sRGB">
<feFlood flood-opacity="0" result="BackgroundImageFix"/>
<feColorMatrix in="SourceAlpha" type="matrix" values="0 0 0 0 0 0 0 0 0 0 0 0 0 0 0 0 0 0 127 0" result="hardAlpha"/>
<feOffset dx="3"/>
<feComposite in2="hardAlpha" operator="out"/>
<feColorMatrix type="matrix" values="0 0 0 0 0 0 0 0 0 0 0 0 0 0 0 0 0 0 0.25 0"/>
<feBlend mode="normal" in2="BackgroundImageFix" result="effect1_dropShadow_207_137"/>
<feBlend mode="normal" in="SourceGraphic" in2="effect1_dropShadow_207_137" result="shape"/>
</filter>
</defs>
</svg>
